<svg width="57" height="43" viewBox="0 0 57 43" fill="none" xmlns="http://www.w3.org/2000/svg">
<path d="M18 1.625C18 0.726172 18.6424 0 19.4375 0H39.5625C40.3576 0 41 0.726172 41 1.625C41 2.52383 40.3576 3.25 39.5625 3.25V22.75C40.3576 22.75 41 23.4762 41 24.375C41 25.2738 40.3576 26 39.5625 26H31.6562V23.5625C31.6562 22.2168 30.6904 21.125 29.5 21.125C28.3096 21.125 27.3438 22.2168 27.3438 23.5625V26H19.4375C18.6424 26 18 25.2738 18 24.375C18 23.4762 18.6424 22.75 19.4375 22.75V3.25C18.6424 3.25 18 2.52383 18 1.625ZM22.3125 5.6875V7.3125C22.3125 7.75938 22.6359 8.125 23.0312 8.125H24.4688C24.8641 8.125 25.1875 7.75938 25.1875 7.3125V5.6875C25.1875 5.24062 24.8641 4.875 24.4688 4.875H23.0312C22.6359 4.875 22.3125 5.24062 22.3125 5.6875ZM28.7812 4.875C28.3859 4.875 28.0625 5.24062 28.0625 5.6875V7.3125C28.0625 7.75938 28.3859 8.125 28.7812 8.125H30.2188C30.6141 8.125 30.9375 7.75938 30.9375 7.3125V5.6875C30.9375 5.24062 30.6141 4.875 30.2188 4.875H28.7812ZM33.8125 5.6875V7.3125C33.8125 7.75938 34.1359 8.125 34.5312 8.125H35.9688C36.3641 8.125 36.6875 7.75938 36.6875 7.3125V5.6875C36.6875 5.24062 36.3641 4.875 35.9688 4.875H34.5312C34.1359 4.875 33.8125 5.24062 33.8125 5.6875ZM23.0312 9.75C22.6359 9.75 22.3125 10.1156 22.3125 10.5625V12.1875C22.3125 12.6344 22.6359 13 23.0312 13H24.4688C24.8641 13 25.1875 12.6344 25.1875 12.1875V10.5625C25.1875 10.1156 24.8641 9.75 24.4688 9.75H23.0312ZM28.0625 10.5625V12.1875C28.0625 12.6344 28.3859 13 28.7812 13H30.2188C30.6141 13 30.9375 12.6344 30.9375 12.1875V10.5625C30.9375 10.1156 30.6141 9.75 30.2188 9.75H28.7812C28.3859 9.75 28.0625 10.1156 28.0625 10.5625ZM34.5312 9.75C34.1359 9.75 33.8125 10.1156 33.8125 10.5625V12.1875C33.8125 12.6344 34.1359 13 34.5312 13H35.9688C36.3641 13 36.6875 12.6344 36.6875 12.1875V10.5625C36.6875 10.1156 36.3641 9.75 35.9688 9.75H34.5312ZM32.7344 19.5C33.3318 19.5 33.826 18.9465 33.6777 18.2914C33.2016 16.184 31.5125 14.625 29.5 14.625C27.4875 14.625 25.7939 16.184 25.3223 18.2914C25.174 18.9414 25.6727 19.5 26.2656 19.5H32.7344Z" fill="url(#paint0_linear_15_3)"/>
<path d="M6.072 33.324C5.936 33.1 5.748 32.928 5.508 32.808C5.276 32.688 5 32.628 4.68 32.628C4.088 32.628 3.62 32.82 3.276 33.204C2.94 33.588 2.772 34.104 2.772 34.752C2.772 35.48 2.952 36.036 3.312 36.42C3.68 36.796 4.212 36.984 4.908 36.984C5.732 36.984 6.32 36.612 6.672 35.868H4.308V34.176H8.7V36.456C8.516 36.904 8.244 37.324 7.884 37.716C7.532 38.108 7.084 38.432 6.54 38.688C5.996 38.936 5.376 39.06 4.68 39.06C3.832 39.06 3.08 38.88 2.424 38.52C1.776 38.152 1.272 37.644 0.912 36.996C0.56 36.34 0.384 35.592 0.384 34.752C0.384 33.92 0.56 33.18 0.912 32.532C1.272 31.876 1.776 31.368 2.424 31.008C3.072 30.64 3.82 30.456 4.668 30.456C5.732 30.456 6.612 30.712 7.308 31.224C8.004 31.736 8.436 32.436 8.604 33.324H6.072ZM10.942 31.644C10.526 31.644 10.19 31.532 9.93403 31.308C9.68603 31.076 9.56203 30.788 9.56203 30.444C9.56203 30.092 9.68603 29.8 9.93403 29.568C10.19 29.336 10.526 29.22 10.942 29.22C11.35 29.22 11.678 29.336 11.926 29.568C12.182 29.8 12.31 30.092 12.31 30.444C12.31 30.788 12.182 31.076 11.926 31.308C11.678 31.532 11.35 31.644 10.942 31.644ZM12.106 32.268V39H9.75403V32.268H12.106ZM15.9294 32.184C16.3854 32.184 16.7814 32.276 17.1174 32.46C17.4614 32.644 17.7254 32.892 17.9094 33.204V32.268H20.2614V38.928C20.2614 39.56 20.1414 40.128 19.9014 40.632C19.6614 41.144 19.2854 41.552 18.7734 41.856C18.2694 42.16 17.6294 42.312 16.8534 42.312C15.8134 42.312 14.9814 42.068 14.3574 41.58C13.7334 41.092 13.3774 40.428 13.2894 39.588H15.6054C15.6534 39.804 15.7734 39.972 15.9654 40.092C16.1574 40.212 16.4054 40.272 16.7094 40.272C17.5094 40.272 17.9094 39.824 17.9094 38.928V38.064C17.7254 38.376 17.4614 38.624 17.1174 38.808C16.7814 38.992 16.3854 39.084 15.9294 39.084C15.3934 39.084 14.9054 38.944 14.4654 38.664C14.0334 38.384 13.6894 37.984 13.4334 37.464C13.1854 36.936 13.0614 36.324 13.0614 35.628C13.0614 34.932 13.1854 34.324 13.4334 33.804C13.6894 33.284 14.0334 32.884 14.4654 32.604C14.9054 32.324 15.3934 32.184 15.9294 32.184ZM17.9094 35.628C17.9094 35.196 17.7894 34.856 17.5494 34.608C17.3174 34.36 17.0294 34.236 16.6854 34.236C16.3334 34.236 16.0414 34.36 15.8094 34.608C15.5774 34.848 15.4614 35.188 15.4614 35.628C15.4614 36.06 15.5774 36.404 15.8094 36.66C16.0414 36.908 16.3334 37.032 16.6854 37.032C17.0294 37.032 17.3174 36.908 17.5494 36.66C17.7894 36.412 17.9094 36.068 17.9094 35.628ZM21.2177 35.628C21.2177 34.932 21.3417 34.324 21.5897 33.804C21.8457 33.284 22.1897 32.884 22.6217 32.604C23.0617 32.324 23.5497 32.184 24.0857 32.184C24.5497 32.184 24.9497 32.276 25.2857 32.46C25.6217 32.644 25.8817 32.892 26.0657 33.204V32.268H28.4177V39H26.0657V38.064C25.8817 38.376 25.6177 38.624 25.2737 38.808C24.9377 38.992 24.5417 39.084 24.0857 39.084C23.5497 39.084 23.0617 38.944 22.6217 38.664C22.1897 38.384 21.8457 37.984 21.5897 37.464C21.3417 36.936 21.2177 36.324 21.2177 35.628ZM26.0657 35.628C26.0657 35.196 25.9457 34.856 25.7057 34.608C25.4737 34.36 25.1857 34.236 24.8417 34.236C24.4897 34.236 24.1977 34.36 23.9657 34.608C23.7337 34.848 23.6177 35.188 23.6177 35.628C23.6177 36.06 23.7337 36.404 23.9657 36.66C24.1977 36.908 24.4897 37.032 24.8417 37.032C25.1857 37.032 25.4737 36.908 25.7057 36.66C25.9457 36.412 26.0657 36.068 26.0657 35.628ZM33.8139 39.084C33.0219 39.084 32.2939 38.9 31.6299 38.532C30.9659 38.156 30.4379 37.64 30.0459 36.984C29.6619 36.32 29.4699 35.572 29.4699 34.74C29.4699 33.908 29.6619 33.164 30.0459 32.508C30.4379 31.844 30.9659 31.328 31.6299 30.96C32.2939 30.592 33.0219 30.408 33.8139 30.408C34.6139 30.408 35.3419 30.592 35.9979 30.96C36.6619 31.328 37.1859 31.844 37.5699 32.508C37.9539 33.164 38.1459 33.908 38.1459 34.74C38.1459 35.572 37.9539 36.32 37.5699 36.984C37.1859 37.64 36.6619 38.156 35.9979 38.532C35.3339 38.9 34.6059 39.084 33.8139 39.084ZM33.8139 36.9C34.4139 36.9 34.8859 36.704 35.2299 36.312C35.5819 35.92 35.7579 35.396 35.7579 34.74C35.7579 34.068 35.5819 33.54 35.2299 33.156C34.8859 32.764 34.4139 32.568 33.8139 32.568C33.2059 32.568 32.7299 32.764 32.3859 33.156C32.0419 33.54 31.8699 34.068 31.8699 34.74C31.8699 35.404 32.0419 35.932 32.3859 36.324C32.7299 36.708 33.2059 36.9 33.8139 36.9ZM43.1753 36.996V39H42.1553C40.4353 39 39.5753 38.148 39.5753 36.444V34.224H38.7473V32.268H39.5753V30.636H41.9393V32.268H43.1633V34.224H41.9393V36.48C41.9393 36.664 41.9793 36.796 42.0592 36.876C42.1473 36.956 42.2913 36.996 42.4913 36.996H43.1753ZM50.686 35.556C50.686 35.74 50.674 35.924 50.65 36.108H46.198C46.222 36.476 46.322 36.752 46.498 36.936C46.682 37.112 46.914 37.2 47.194 37.2C47.586 37.2 47.866 37.024 48.034 36.672H50.542C50.438 37.136 50.234 37.552 49.93 37.92C49.634 38.28 49.258 38.564 48.802 38.772C48.346 38.98 47.842 39.084 47.29 39.084C46.626 39.084 46.034 38.944 45.514 38.664C45.002 38.384 44.598 37.984 44.302 37.464C44.014 36.944 43.87 36.332 43.87 35.628C43.87 34.924 44.014 34.316 44.302 33.804C44.59 33.284 44.99 32.884 45.502 32.604C46.022 32.324 46.618 32.184 47.29 32.184C47.954 32.184 48.542 32.32 49.054 32.592C49.566 32.864 49.966 33.256 50.254 33.768C50.542 34.272 50.686 34.868 50.686 35.556ZM48.286 34.968C48.286 34.68 48.19 34.456 47.998 34.296C47.806 34.128 47.566 34.044 47.278 34.044C46.99 34.044 46.754 34.124 46.57 34.284C46.386 34.436 46.266 34.664 46.21 34.968H48.286ZM54.0006 30.12V39H51.6486V30.12H54.0006Z" fill="#020202"/>
<path d="M6.072 33.324C5.936 33.1 5.748 32.928 5.508 32.808C5.276 32.688 5 32.628 4.68 32.628C4.088 32.628 3.62 32.82 3.276 33.204C2.94 33.588 2.772 34.104 2.772 34.752C2.772 35.48 2.952 36.036 3.312 36.42C3.68 36.796 4.212 36.984 4.908 36.984C5.732 36.984 6.32 36.612 6.672 35.868H4.308V34.176H8.7V36.456C8.516 36.904 8.244 37.324 7.884 37.716C7.532 38.108 7.084 38.432 6.54 38.688C5.996 38.936 5.376 39.06 4.68 39.06C3.832 39.06 3.08 38.88 2.424 38.52C1.776 38.152 1.272 37.644 0.912 36.996C0.56 36.34 0.384 35.592 0.384 34.752C0.384 33.92 0.56 33.18 0.912 32.532C1.272 31.876 1.776 31.368 2.424 31.008C3.072 30.64 3.82 30.456 4.668 30.456C5.732 30.456 6.612 30.712 7.308 31.224C8.004 31.736 8.436 32.436 8.604 33.324H6.072Z" fill="#FF00E1"/>
<path d="M33.728 39.084C32.936 39.084 32.208 38.9 31.544 38.532C30.88 38.156 30.352 37.64 29.96 36.984C29.576 36.32 29.384 35.572 29.384 34.74C29.384 33.908 29.576 33.164 29.96 32.508C30.352 31.844 30.88 31.328 31.544 30.96C32.208 30.592 32.936 30.408 33.728 30.408C34.528 30.408 35.256 30.592 35.912 30.96C36.576 31.328 37.1 31.844 37.484 32.508C37.868 33.164 38.06 33.908 38.06 34.74C38.06 35.572 37.868 36.32 37.484 36.984C37.1 37.64 36.576 38.156 35.912 38.532C35.248 38.9 34.52 39.084 33.728 39.084ZM33.728 36.9C34.328 36.9 34.8 36.704 35.144 36.312C35.496 35.92 35.672 35.396 35.672 34.74C35.672 34.068 35.496 33.54 35.144 33.156C34.8 32.764 34.328 32.568 33.728 32.568C33.12 32.568 32.644 32.764 32.3 33.156C31.956 33.54 31.784 34.068 31.784 34.74C31.784 35.404 31.956 35.932 32.3 36.324C32.644 36.708 33.12 36.9 33.728 36.9Z" fill="#FF00E1"/>
<defs>
<linearGradient id="paint0_linear_15_3" x1="29.5" y1="0" x2="29.5" y2="26" gradientUnits="userSpaceOnUse">
<stop stop-color="#FF00E1"/>
<stop offset="1" stop-color="#74087E"/>
</linearGradient>
</defs>
</svg>
