<svg width="23" height="26" viewBox="0 0 23 26" fill="none" xmlns="http://www.w3.org/2000/svg">
<path d="M0 1.625C0 0.726172 0.642383 0 1.4375 0H21.5625C22.3576 0 23 0.726172 23 1.625C23 2.52383 22.3576 3.25 21.5625 3.25V22.75C22.3576 22.75 23 23.4762 23 24.375C23 25.2738 22.3576 26 21.5625 26H13.6562V23.5625C13.6562 22.2168 12.6904 21.125 11.5 21.125C10.3096 21.125 9.34375 22.2168 9.34375 23.5625V26H1.4375C0.642383 26 0 25.2738 0 24.375C0 23.4762 0.642383 22.75 1.4375 22.75V3.25C0.642383 3.25 0 2.52383 0 1.625ZM4.3125 5.6875V7.3125C4.3125 7.75938 4.63594 8.125 5.03125 8.125H6.46875C6.86406 8.125 7.1875 7.75938 7.1875 7.3125V5.6875C7.1875 5.24062 6.86406 4.875 6.46875 4.875H5.03125C4.63594 4.875 4.3125 5.24062 4.3125 5.6875ZM10.7812 4.875C10.3859 4.875 10.0625 5.24062 10.0625 5.6875V7.3125C10.0625 7.75938 10.3859 8.125 10.7812 8.125H12.2188C12.6141 8.125 12.9375 7.75938 12.9375 7.3125V5.6875C12.9375 5.24062 12.6141 4.875 12.2188 4.875H10.7812ZM15.8125 5.6875V7.3125C15.8125 7.75938 16.1359 8.125 16.5312 8.125H17.9688C18.3641 8.125 18.6875 7.75938 18.6875 7.3125V5.6875C18.6875 5.24062 18.3641 4.875 17.9688 4.875H16.5312C16.1359 4.875 15.8125 5.24062 15.8125 5.6875ZM5.03125 9.75C4.63594 9.75 4.3125 10.1156 4.3125 10.5625V12.1875C4.3125 12.6344 4.63594 13 5.03125 13H6.46875C6.86406 13 7.1875 12.6344 7.1875 12.1875V10.5625C7.1875 10.1156 6.86406 9.75 6.46875 9.75H5.03125ZM10.0625 10.5625V12.1875C10.0625 12.6344 10.3859 13 10.7812 13H12.2188C12.6141 13 12.9375 12.6344 12.9375 12.1875V10.5625C12.9375 10.1156 12.6141 9.75 12.2188 9.75H10.7812C10.3859 9.75 10.0625 10.1156 10.0625 10.5625ZM16.5312 9.75C16.1359 9.75 15.8125 10.1156 15.8125 10.5625V12.1875C15.8125 12.6344 16.1359 13 16.5312 13H17.9688C18.3641 13 18.6875 12.6344 18.6875 12.1875V10.5625C18.6875 10.1156 18.3641 9.75 17.9688 9.75H16.5312ZM14.7344 19.5C15.3318 19.5 15.826 18.9465 15.6777 18.2914C15.2016 16.184 13.5125 14.625 11.5 14.625C9.4875 14.625 7.79395 16.184 7.32227 18.2914C7.17402 18.9414 7.67266 19.5 8.26562 19.5H14.7344Z" fill="url(#paint0_linear_5_5)"/>
<defs>
<linearGradient id="paint0_linear_5_5" x1="11.5" y1="0" x2="11.5" y2="26" gradientUnits="userSpaceOnUse">
<stop stop-color="#FF00E1"/>
<stop offset="1" stop-color="#74087E"/>
</linearGradient>
</defs>
</svg>
